<svg xmlns="http://www.w3.org/2000/svg" viewBox="0 0 16 16" shape-rendering="crispEdges">
  <rect width="16" height="16" fill="#F1E7CF"/>
  <!-- crenellated wall -->
  <path fill="#1A140F" d="M2 6h2v1H2zM5 6h2v1H5zM9 6h2v1H9zM12 6h2v1h-2z"/>
  <rect x="2" y="7" width="12" height="6" fill="#1A140F"/>
  <!-- gate -->
  <path fill="#F1E7CF" d="M7 9h2v4H7z"/>
  <rect x="7" y="9" width="2" height="1" fill="#1A140F"/>
  <!-- center tower -->
  <rect x="6" y="3" width="4" height="3" fill="#1A140F"/>
  <path fill="#1A140F" d="M6 2h1v1H6zM8 2h1v1H8z"/>
  <!-- flag -->
  <rect x="9" y="0" width="1" height="3" fill="#1A140F"/>
  <path fill="#A53D2A" d="M10 0h3v2h-3z"/>
  <!-- ground -->
  <rect x="0" y="13" width="16" height="1" fill="#1A140F"/>
</svg>
